# xmcd
#
# Track frame offsets: 
#        150
#        13360
#        28913
#        41790
#        53864
#        65910
#        80246
#        93790
#        108444
#        121107
#        134325
#        147779
#        161687
#        174729
#        188469
#        202329
#        216613
#        230245
#        242020
#        256333
#        270115
#
# Disc length: 3747 seconds
#
# Revision: 2
# Processed by: cddbd v1.5.2PL0 Copyright (c) Steve Scherf et al.
# Submitted via: ExactAudioCopy v1.0b4
#
DISCID=410ea115
DTITLE=Duke Ellington - The Ultimate Jazz Archive Set 37, Menu 1 Duke 
DTITLE=Ellington
DYEAR=1941
DGENRE=Swing
TTITLE0=Chelsea Boogie
TTITLE1=What Am I Here For?
TTITLE2=Main Stem
TTITLE3=Johnny Come Lately
TTITLE4=Duke Ellington And His Orchestra - The 'C' Jam Blues
TTITLE5=Duke Ellington And His Orchestra - Perdido
TTITLE6=Duke Ellington And His Orchestra - Moon Mist
TTITLE7=Duke Ellington And His Orchestra - I'm Beginning To See The Li
TTITLE7=ght (With Joya Sherrill)
TTITLE8=Carnegie Blues
TTITLE9=Blue Cellophone
TTITLE10=Mood To Be Wooed
TTITLE11=Sonny Greer And The Duke's Men - The Mooche
TTITLE12=Black And Tan Fantasy
TTITLE13=Duke Ellington And His Orchestra - It Don't Mean A Thing (If 
TTITLE13=It Ain't Got That Swing)
TTITLE14=Duke Ellington And His Orchestra - In A Sentimental Mood
TTITLE15=Things Ain't What They Used To Be (Time's A-Waistin')
TTITLE16=Magenta Haze
TTITLE17=Blue Skies
TTITLE18=Sultry Sunset
TTITLE19=Do Nothin' Till You Hear From Me
TTITLE20=Park At 106th
EXTD=YEAR: 2005
EXTT0=
EXTT1=
EXTT2=
EXTT3=
EXTT4=
EXTT5=
EXTT6=
EXTT7=
EXTT8=
EXTT9=
EXTT10=
EXTT11=
EXTT12=
EXTT13=
EXTT14=
EXTT15=
EXTT16=
EXTT17=
EXTT18=
EXTT19=
EXTT20=
PLAYORDER=
